<svg xmlns="http://www.w3.org/2000/svg" width="1060" height="430" viewBox="0 0 1060 430">
<style>text{font-family:Inter,Segoe UI,Arial,sans-serif;fill:#102033}.title{font-size:24px;font-weight:700}.sub{font-size:13px;fill:#52616f}.axis{font-size:12px;fill:#52616f}.label{font-size:12px;fill:#52616f}.series{font-size:11px;fill:#52616f}.value{font-size:12px;font-weight:700}.small{font-size:11px;fill:#52616f}.grid{stroke:#d8dee8;stroke-width:1}.axisline{stroke:#475569;stroke-width:1.2}.err{stroke:#243447;stroke-width:1.5}.line{fill:none;stroke-width:2.6}.dot{stroke:white;stroke-width:1.4}</style>
<rect width="1060" height="430" fill="white"/>
<text class="title" x="24" y="34">Lattice speedup over scoped Disruptor rows</text>
<text class="sub" x="24" y="58">Same benchmark shapes as the headline throughput figure; ratio uses point estimates</text>
<line class="grid" x1="330.0" y1="78" x2="330.0" y2="360"/>
<text class="axis" x="330.0" y="386" text-anchor="middle">0x</text>
<line class="grid" x1="456.0" y1="78" x2="456.0" y2="360"/>
<text class="axis" x="456.0" y="386" text-anchor="middle">5x</text>
<line class="grid" x1="582.0" y1="78" x2="582.0" y2="360"/>
<text class="axis" x="582.0" y="386" text-anchor="middle">10x</text>
<line class="grid" x1="708.0" y1="78" x2="708.0" y2="360"/>
<text class="axis" x="708.0" y="386" text-anchor="middle">15x</text>
<line class="grid" x1="834.0" y1="78" x2="834.0" y2="360"/>
<text class="axis" x="834.0" y="386" text-anchor="middle">20x</text>
<line class="grid" x1="960.0" y1="78" x2="960.0" y2="360"/>
<text class="axis" x="960.0" y="386" text-anchor="middle">25x</text>
<line x1="355.2" y1="78" x2="355.2" y2="360" stroke="#102033" stroke-width="1.4" stroke-dasharray="4 4"/>
<text class="axis" x="361.2" y="72">1.0x parity</text>
<text class="label" x="312" y="114" text-anchor="end">3-stage physical publish</text>
<rect x="330" y="92" width="37.1" height="34" rx="3" fill="#0f766e"/>
<text class="value" x="376.1" y="114">1.47x</text>
<text class="label" x="312" y="186" text-anchor="end">3-stage fused publish</text>
<rect x="330" y="164" width="90.3" height="34" rx="3" fill="#0f766e"/>
<text class="value" x="429.3" y="186">3.58x</text>
<text class="label" x="312" y="258" text-anchor="end">Equal-call-site reference</text>
<rect x="330" y="236" width="169.5" height="34" rx="3" fill="#0f766e"/>
<text class="value" x="508.5" y="258">6.73x</text>
<text class="label" x="312" y="330" text-anchor="end">Optimal completed path</text>
<rect x="330" y="308" width="542.0" height="34" rx="3" fill="#0f766e"/>
<text class="value" x="881.0" y="330">21.51x</text>
</svg>
