<svg xmlns="http://www.w3.org/2000/svg" width="1240" height="640" viewBox="0 0 1240 640">
<style>text{font-family:Inter,Segoe UI,Arial,sans-serif;fill:#102033}.title{font-size:24px;font-weight:700}.sub{font-size:13px;fill:#52616f}.boxtext{font-size:14px;font-weight:650}.small{font-size:12px;fill:#52616f}.box{fill:#f7f9fc;stroke:#cbd5e1;stroke-width:1.2}.accent{fill:#e6fffb;stroke:#0f766e;stroke-width:1.6}.warn{fill:#fff7ed;stroke:#b45309;stroke-width:1.4}.arrow{stroke:#475569;stroke-width:1.6;fill:none;marker-end:url(#arrow)}</style>
<defs><marker id="arrow" markerWidth="10" markerHeight="10" refX="8" refY="3" orient="auto" markerUnits="strokeWidth"><path d="M0,0 L0,6 L9,3 z" fill="#475569"/></marker></defs>
<rect width="1240" height="640" fill="white"/>
<text class="title" x="24" y="34">Runtime guarantee map</text>
<text class="sub" x="24" y="56">Guarantees are local to accepted messages inside one process; external durability and exactly-once effects are intentionally out of scope.</text>

<rect class="accent" x="60" y="105" width="260" height="112" rx="6"/>
<text class="boxtext" x="80" y="136">Static topology</text>
<text class="small" x="80" y="162">Graph shape is validated before start</text>
<text class="small" x="80" y="180">and is immutable while running</text>

<rect class="accent" x="385" y="105" width="260" height="112" rx="6"/>
<text class="boxtext" x="405" y="136">Bounded edges</text>
<text class="small" x="405" y="162">Every handoff has explicit capacity</text>
<text class="small" x="405" y="180">and overflow behavior</text>

<rect class="accent" x="710" y="105" width="260" height="112" rx="6"/>
<text class="boxtext" x="730" y="136">Local ordering</text>
<text class="small" x="730" y="162">SPSC preserves producer order;</text>
<text class="small" x="730" y="180">MPSC preserves reservation order</text>

<rect class="box" x="220" y="270" width="260" height="112" rx="6"/>
<text class="boxtext" x="240" y="301">Backpressure</text>
<text class="small" x="240" y="327">Block, timed block, fail-fast, loss,</text>
<text class="small" x="240" y="345">coalesce, or redirect by policy</text>

<rect class="box" x="545" y="270" width="260" height="112" rx="6"/>
<text class="boxtext" x="565" y="301">Ownership</text>
<text class="small" x="565" y="327">Single-threaded stages are invoked</text>
<text class="small" x="565" y="345">by one worker at a time</text>

<rect class="box" x="870" y="270" width="260" height="112" rx="6"/>
<text class="boxtext" x="890" y="301">Lifecycle</text>
<text class="small" x="890" y="327">Stop drains accepted work;</text>
<text class="small" x="890" y="345">abort is fail-fast</text>

<rect class="warn" x="385" y="435" width="260" height="112" rx="6"/>
<text class="boxtext" x="405" y="466">Fusion</text>
<text class="small" x="405" y="492">Eligible linear chains remove handoffs</text>
<text class="small" x="405" y="510">while preserving logical graph visibility</text>

<rect class="warn" x="710" y="435" width="260" height="112" rx="6"/>
<text class="boxtext" x="730" y="466">Observability</text>
<text class="small" x="730" y="492">Metrics, placement reports, JFR hooks,</text>
<text class="small" x="730" y="510">and validation artifacts document behavior</text>

<path class="arrow" d="M320,161 C352.5,161 352.5,161 385,161"/>
<path class="arrow" d="M645,161 C677.5,161 677.5,161 710,161"/>
<path class="arrow" d="M515,217 C432.5,217 432.5,270 350,270"/>
<path class="arrow" d="M840,217 C757.5,217 757.5,270 675,270"/>
<path class="arrow" d="M480,382 C497.5,382 497.5,435 515,435"/>
<path class="arrow" d="M805,382 C822.5,382 822.5,435 840,435"/>
</svg>
