<svg xmlns="http://www.w3.org/2000/svg" width="1180" height="400" viewBox="0 0 1180 400">
<style>text{font-family:Inter,Segoe UI,Arial,sans-serif;fill:#102033}.title{font-size:24px;font-weight:700}.sub{font-size:13px;fill:#52616f}.axis{font-size:12px;fill:#52616f}.label{font-size:12px;fill:#52616f}.value{font-size:12px;font-weight:700}.small{font-size:11px;fill:#52616f}.grid{stroke:#d8dee8;stroke-width:1}.axisline{stroke:#475569;stroke-width:1.2}.err{stroke:#243447;stroke-width:1.5}.bar{rx:3}</style>
<rect width="1180" height="400" fill="white"/>
<text class="title" x="24" y="34">Isolated end-to-end p99 latency</text>
<text class="sub" x="24" y="58">Each row run in its own JMH invocation; bars show aggregate p99, whiskers show per-iteration p99 range</text>
<line class="grid" x1="300.0" y1="78" x2="300.0" y2="338"/>
<text class="axis" x="300.0" y="364" text-anchor="middle">10 ns</text>
<line class="grid" x1="500.0" y1="78" x2="500.0" y2="338"/>
<text class="axis" x="500.0" y="364" text-anchor="middle">100 ns</text>
<line class="grid" x1="700.0" y1="78" x2="700.0" y2="338"/>
<text class="axis" x="700.0" y="364" text-anchor="middle">1.00 us</text>
<line class="grid" x1="900.0" y1="78" x2="900.0" y2="338"/>
<text class="axis" x="900.0" y="364" text-anchor="middle">10.00 us</text>
<line class="axisline" x1="300" y1="338" x2="900" y2="338"/>
<line class="axisline" x1="300" y1="78" x2="300" y2="338"/>
<text class="label" x="280" y="113" text-anchor="end">Lattice source-inline elided</text>
<rect class="bar" x="300" y="96" width="141.5" height="24" fill="#0f766e"/>
<line class="err" x1="436.2" y1="108.0" x2="452.7" y2="108.0"/>
<line class="err" x1="436.2" y1="101.0" x2="436.2" y2="115.0"/>
<line class="err" x1="452.7" y1="101.0" x2="452.7" y2="115.0"/>
<text class="value" x="464.7" y="113">51 ns</text>
<text class="label" x="280" y="165" text-anchor="end">Disruptor manual fused</text>
<rect class="bar" x="300" y="148" width="318.9" height="24" fill="#b45309"/>
<line class="err" x1="609.1" y1="160.0" x2="631.9" y2="160.0"/>
<line class="err" x1="609.1" y1="153.0" x2="609.1" y2="167.0"/>
<line class="err" x1="631.9" y1="153.0" x2="631.9" y2="167.0"/>
<text class="value" x="643.9" y="165">393 ns</text>
<text class="label" x="280" y="217" text-anchor="end">Lattice physical strict topology</text>
<rect class="bar" x="300" y="200" width="431.3" height="24" fill="#0891b2"/>
<line class="err" x1="712.5" y1="212.0" x2="861.2" y2="212.0"/>
<line class="err" x1="712.5" y1="205.0" x2="712.5" y2="219.0"/>
<line class="err" x1="861.2" y1="205.0" x2="861.2" y2="219.0"/>
<text class="value" x="873.2" y="217">1.43 us</text>
<text class="label" x="280" y="269" text-anchor="end">Disruptor physical</text>
<rect class="bar" x="300" y="252" width="512.0" height="24" fill="#475569"/>
<line class="err" x1="757.5" y1="264.0" x2="831.7" y2="264.0"/>
<line class="err" x1="757.5" y1="257.0" x2="757.5" y2="271.0"/>
<line class="err" x1="831.7" y1="257.0" x2="831.7" y2="271.0"/>
<text class="value" x="843.7" y="269">3.63 us</text>
<text class="label" x="280" y="321" text-anchor="end">Lattice physical pinned CPU</text>
<rect class="bar" x="300" y="304" width="441.9" height="24" fill="#06b6d4"/>
<line class="err" x1="713.5" y1="316.0" x2="842.7" y2="316.0"/>
<line class="err" x1="713.5" y1="309.0" x2="713.5" y2="323.0"/>
<line class="err" x1="842.7" y1="309.0" x2="842.7" y2="323.0"/>
<text class="value" x="854.7" y="321">1.62 us</text>
<text class="small" x="900" y="386" text-anchor="end">ns/op p99, logarithmic scale</text>
</svg>
