<svg xmlns="http://www.w3.org/2000/svg" width="1120" height="540" viewBox="0 0 1120 540">
<style>text{font-family:Inter,Segoe UI,Arial,sans-serif;fill:#102033}.title{font-size:24px;font-weight:700}.sub{font-size:13px;fill:#52616f}.axis{font-size:12px;fill:#52616f}.label{font-size:12px;fill:#52616f}.series{font-size:11px;fill:#52616f}.value{font-size:12px;font-weight:700}.small{font-size:11px;fill:#52616f}.grid{stroke:#d8dee8;stroke-width:1}.axisline{stroke:#475569;stroke-width:1.2}.err{stroke:#243447;stroke-width:1.5}.line{fill:none;stroke-width:2.6}.dot{stroke:white;stroke-width:1.4}</style>
<rect width="1120" height="540" fill="white"/>
<text class="title" x="24" y="34">Optimal-path latency percentiles</text>
<text class="sub" x="24" y="58">Same parse/enrich/risk/serialize completed workload; JMH sample-time mode, lower is better</text>
<line class="grid" x1="100" y1="450.0" x2="820" y2="450.0"/>
<text class="axis" x="88" y="454.0" text-anchor="end">10 ns</text>
<line class="grid" x1="100" y1="359.5" x2="820" y2="359.5"/>
<text class="axis" x="88" y="363.5" text-anchor="end">100 ns</text>
<line class="grid" x1="100" y1="269.0" x2="820" y2="269.0"/>
<text class="axis" x="88" y="273.0" text-anchor="end">1.00 us</text>
<line class="grid" x1="100" y1="178.5" x2="820" y2="178.5"/>
<text class="axis" x="88" y="182.5" text-anchor="end">10.00 us</text>
<line class="grid" x1="100" y1="88.0" x2="820" y2="88.0"/>
<text class="axis" x="88" y="92.0" text-anchor="end">100.00 us</text>
<line class="grid" x1="100.0" y1="88" x2="100.0" y2="450"/>
<text class="axis" x="100.0" y="478" text-anchor="middle">p50</text>
<line class="grid" x1="340.0" y1="88" x2="340.0" y2="450"/>
<text class="axis" x="340.0" y="478" text-anchor="middle">p90</text>
<line class="grid" x1="580.0" y1="88" x2="580.0" y2="450"/>
<text class="axis" x="580.0" y="478" text-anchor="middle">p99</text>
<line class="grid" x1="820.0" y1="88" x2="820.0" y2="450"/>
<text class="axis" x="820.0" y="478" text-anchor="middle">p99.9</text>
<line class="axisline" x1="100" y1="450" x2="820" y2="450"/>
<line class="axisline" x1="100" y1="88" x2="100" y2="450"/>
<polyline class="line" points="100.0,316.8 340.0,312.0 580.0,280.9 820.0,168.4" stroke="#2563eb"/>
<circle class="dot" cx="100.0" cy="316.8" r="4" fill="#2563eb"/>
<circle class="dot" cx="340.0" cy="312.0" r="4" fill="#2563eb"/>
<circle class="dot" cx="580.0" cy="280.9" r="4" fill="#2563eb"/>
<circle class="dot" cx="820.0" cy="168.4" r="4" fill="#2563eb"/>
<rect x="870" y="100" width="14" height="14" rx="2" fill="#2563eb"/>
<text class="label" x="894" y="112">Lattice fused owner worker</text>
<text class="small" x="894" y="130">p50 296 ns · p99 738 ns · p99.9 12.94 us</text>
<polyline class="line" points="100.0,406.8 340.0,395.5 580.0,380.9 820.0,317.7" stroke="#0f766e"/>
<circle class="dot" cx="100.0" cy="406.8" r="4" fill="#0f766e"/>
<circle class="dot" cx="340.0" cy="395.5" r="4" fill="#0f766e"/>
<circle class="dot" cx="580.0" cy="380.9" r="4" fill="#0f766e"/>
<circle class="dot" cx="820.0" cy="317.7" r="4" fill="#0f766e"/>
<rect x="870" y="152" width="14" height="14" rx="2" fill="#0f766e"/>
<text class="label" x="894" y="164">Lattice source-inline elided</text>
<text class="small" x="894" y="182">p50 30 ns · p99 58 ns · p99.9 290 ns</text>
<polyline class="line" points="100.0,324.6 340.0,315.0 580.0,297.0 820.0,174.1" stroke="#b45309"/>
<circle class="dot" cx="100.0" cy="324.6" r="4" fill="#b45309"/>
<circle class="dot" cx="340.0" cy="315.0" r="4" fill="#b45309"/>
<circle class="dot" cx="580.0" cy="297.0" r="4" fill="#b45309"/>
<circle class="dot" cx="820.0" cy="174.1" r="4" fill="#b45309"/>
<rect x="870" y="204" width="14" height="14" rx="2" fill="#b45309"/>
<text class="label" x="894" y="216">Disruptor manual fused</text>
<text class="small" x="894" y="234">p50 243 ns · p99 491 ns · p99.9 11.17 us</text>
<text class="axis" x="820" y="510" text-anchor="end">ns/op, logarithmic scale</text>
</svg>
