<svg xmlns="http://www.w3.org/2000/svg" width="1120" height="560" viewBox="0 0 1120 560">
<style>text{font-family:Inter,Segoe UI,Arial,sans-serif;fill:#102033}.title{font-size:24px;font-weight:700}.sub{font-size:13px;fill:#52616f}.axis{font-size:12px;fill:#52616f}.legend{font-size:12px}.grid{stroke:#d8dee8;stroke-width:1}.axisline{stroke:#475569;stroke-width:1.2}.line{fill:none;stroke-width:2.4}.dot{stroke:white;stroke-width:1.2}</style>
<rect width="1120" height="560" fill="white"/>
<text class="title" x="22" y="32">End-to-end latency percentiles</text>
<text class="sub" x="22" y="54">Saturating-throughput histograms from checked-in logs; y-axis is logarithmic nanoseconds</text>
<line class="grid" x1="86" y1="490.0" x2="870" y2="490.0"/>
<text class="axis" x="76" y="494.0" text-anchor="end">1 ns</text>
<line class="grid" x1="86" y1="435.5" x2="870" y2="435.5"/>
<text class="axis" x="76" y="439.5" text-anchor="end">10 ns</text>
<line class="grid" x1="86" y1="381.0" x2="870" y2="381.0"/>
<text class="axis" x="76" y="385.0" text-anchor="end">100 ns</text>
<line class="grid" x1="86" y1="326.4" x2="870" y2="326.4"/>
<text class="axis" x="76" y="330.4" text-anchor="end">1.0 us</text>
<line class="grid" x1="86" y1="271.9" x2="870" y2="271.9"/>
<text class="axis" x="76" y="275.9" text-anchor="end">10.0 us</text>
<line class="grid" x1="86" y1="217.4" x2="870" y2="217.4"/>
<text class="axis" x="76" y="221.4" text-anchor="end">100.0 us</text>
<line class="grid" x1="86" y1="162.9" x2="870" y2="162.9"/>
<text class="axis" x="76" y="166.9" text-anchor="end">1.00 ms</text>
<line class="grid" x1="86" y1="108.3" x2="870" y2="108.3"/>
<text class="axis" x="76" y="112.3" text-anchor="end">10.00 ms</text>
<line class="grid" x1="86.0" y1="86" x2="86.0" y2="490"/>
<text class="axis" x="86.0" y="516" text-anchor="middle">p50</text>
<line class="grid" x1="347.3" y1="86" x2="347.3" y2="490"/>
<text class="axis" x="347.3" y="516" text-anchor="middle">p99</text>
<line class="grid" x1="608.7" y1="86" x2="608.7" y2="490"/>
<text class="axis" x="608.7" y="516" text-anchor="middle">p99.9</text>
<line class="grid" x1="870.0" y1="86" x2="870.0" y2="490"/>
<text class="axis" x="870.0" y="516" text-anchor="middle">p99.99</text>
<polyline class="line" points="86.0,326.4 347.3,149.7 608.7,115.7 870.0,98.1" stroke="#0f766e"/>
<circle class="dot" cx="86.0" cy="326.4" r="4" fill="#0f766e"/>
<circle class="dot" cx="347.3" cy="149.7" r="4" fill="#0f766e"/>
<circle class="dot" cx="608.7" cy="115.7" r="4" fill="#0f766e"/>
<circle class="dot" cx="870.0" cy="98.1" r="4" fill="#0f766e"/>
<rect x="898" y="86" width="14" height="14" rx="2" fill="#0f766e"/>
<text class="legend" x="920" y="98">batchedValidateSink</text>
<polyline class="line" points="86.0,316.8 347.3,141.2 608.7,104.7 870.0,93.1" stroke="#b45309"/>
<circle class="dot" cx="86.0" cy="316.8" r="4" fill="#b45309"/>
<circle class="dot" cx="347.3" cy="141.2" r="4" fill="#b45309"/>
<circle class="dot" cx="608.7" cy="104.7" r="4" fill="#b45309"/>
<circle class="dot" cx="870.0" cy="93.1" r="4" fill="#b45309"/>
<rect x="898" y="112" width="14" height="14" rx="2" fill="#b45309"/>
<text class="legend" x="920" y="124">validate/risk/commit</text>
<polyline class="line" points="86.0,265.9 347.3,164.1 608.7,113.7 870.0,105.1" stroke="#0e7490"/>
<circle class="dot" cx="86.0" cy="265.9" r="4" fill="#0e7490"/>
<circle class="dot" cx="347.3" cy="164.1" r="4" fill="#0e7490"/>
<circle class="dot" cx="608.7" cy="113.7" r="4" fill="#0e7490"/>
<circle class="dot" cx="870.0" cy="105.1" r="4" fill="#0e7490"/>
<rect x="898" y="138" width="14" height="14" rx="2" fill="#0e7490"/>
<text class="legend" x="920" y="150">preallocatedSource</text>
<polyline class="line" points="86.0,331.7 347.3,165.6 608.7,128.9 870.0,108.5" stroke="#0891b2"/>
<circle class="dot" cx="86.0" cy="331.7" r="4" fill="#0891b2"/>
<circle class="dot" cx="347.3" cy="165.6" r="4" fill="#0891b2"/>
<circle class="dot" cx="608.7" cy="128.9" r="4" fill="#0891b2"/>
<circle class="dot" cx="870.0" cy="108.5" r="4" fill="#0891b2"/>
<rect x="898" y="164" width="14" height="14" rx="2" fill="#0891b2"/>
<text class="legend" x="920" y="176">oneSourceOneSink</text>
<polyline class="line" points="86.0,188.2 347.3,148.3 608.7,119.5 870.0,103.3" stroke="#6366f1"/>
<circle class="dot" cx="86.0" cy="188.2" r="4" fill="#6366f1"/>
<circle class="dot" cx="347.3" cy="148.3" r="4" fill="#6366f1"/>
<circle class="dot" cx="608.7" cy="119.5" r="4" fill="#6366f1"/>
<circle class="dot" cx="870.0" cy="103.3" r="4" fill="#6366f1"/>
<rect x="898" y="190" width="14" height="14" rx="2" fill="#6366f1"/>
<text class="legend" x="920" y="202">threeStageFused</text>
<polyline class="line" points="86.0,259.6 347.3,152.3 608.7,121.2 870.0,104.1" stroke="#7c3aed"/>
<circle class="dot" cx="86.0" cy="259.6" r="4" fill="#7c3aed"/>
<circle class="dot" cx="347.3" cy="152.3" r="4" fill="#7c3aed"/>
<circle class="dot" cx="608.7" cy="121.2" r="4" fill="#7c3aed"/>
<circle class="dot" cx="870.0" cy="104.1" r="4" fill="#7c3aed"/>
<rect x="898" y="216" width="14" height="14" rx="2" fill="#7c3aed"/>
<text class="legend" x="920" y="228">mpscIngress</text>
<line class="axisline" x1="86" y1="490" x2="870" y2="490"/>
<line class="axisline" x1="86" y1="86" x2="86" y2="490"/>
</svg>
