<svg xmlns="http://www.w3.org/2000/svg" width="1180" height="610" viewBox="0 0 1180 610">
<style>text{font-family:Inter,Segoe UI,Arial,sans-serif;fill:#102033}.title{font-size:24px;font-weight:700}.sub{font-size:13px;fill:#52616f}.axis{font-size:12px;fill:#52616f}.label{font-size:12px;fill:#52616f}.series{font-size:11px;fill:#52616f}.value{font-size:12px;font-weight:700}.small{font-size:11px;fill:#52616f}.grid{stroke:#d8dee8;stroke-width:1}.axisline{stroke:#475569;stroke-width:1.2}.err{stroke:#243447;stroke-width:1.5}.line{fill:none;stroke-width:2.6}.dot{stroke:white;stroke-width:1.4}</style>
<rect width="1180" height="610" fill="white"/>
<text class="title" x="24" y="34">Isolated end-to-end latency percentiles</text>
<text class="sub" x="24" y="58">Each row run in its own JMH invocation; same completed parse/enrich/risk/serialize workload</text>
<line class="grid" x1="100" y1="486.0" x2="820" y2="486.0"/>
<text class="axis" x="88" y="490.0" text-anchor="end">10 ns</text>
<line class="grid" x1="100" y1="386.5" x2="820" y2="386.5"/>
<text class="axis" x="88" y="390.5" text-anchor="end">100 ns</text>
<line class="grid" x1="100" y1="287.0" x2="820" y2="287.0"/>
<text class="axis" x="88" y="291.0" text-anchor="end">1.00 us</text>
<line class="grid" x1="100" y1="187.5" x2="820" y2="187.5"/>
<text class="axis" x="88" y="191.5" text-anchor="end">10.00 us</text>
<line class="grid" x1="100" y1="88.0" x2="820" y2="88.0"/>
<text class="axis" x="88" y="92.0" text-anchor="end">100.00 us</text>
<line class="grid" x1="100.0" y1="88" x2="100.0" y2="486"/>
<text class="axis" x="100.0" y="514" text-anchor="middle">p50</text>
<line class="grid" x1="340.0" y1="88" x2="340.0" y2="486"/>
<text class="axis" x="340.0" y="514" text-anchor="middle">p90</text>
<line class="grid" x1="580.0" y1="88" x2="580.0" y2="486"/>
<text class="axis" x="580.0" y="514" text-anchor="middle">p99</text>
<line class="grid" x1="820.0" y1="88" x2="820.0" y2="486"/>
<text class="axis" x="820.0" y="514" text-anchor="middle">p99.9</text>
<line class="axisline" x1="100" y1="486" x2="820" y2="486"/>
<line class="axisline" x1="100" y1="88" x2="100" y2="486"/>
<polyline class="line" points="100.0,438.5 340.0,427.2 580.0,415.6 820.0,339.8" stroke="#0f766e"/>
<circle class="dot" cx="100.0" cy="438.5" r="4" fill="#0f766e"/>
<circle class="dot" cx="340.0" cy="427.2" r="4" fill="#0f766e"/>
<circle class="dot" cx="580.0" cy="415.6" r="4" fill="#0f766e"/>
<circle class="dot" cx="820.0" cy="339.8" r="4" fill="#0f766e"/>
<rect x="870" y="118" width="14" height="14" rx="2" fill="#0f766e"/>
<text class="label" x="894" y="130">Lattice source-inline elided</text>
<text class="small" x="894" y="148">p50 30 ns / p99 51 ns / p99.9 295 ns</text>
<polyline class="line" points="100.0,350.3 340.0,340.3 580.0,327.4 820.0,189.6" stroke="#b45309"/>
<circle class="dot" cx="100.0" cy="350.3" r="4" fill="#b45309"/>
<circle class="dot" cx="340.0" cy="340.3" r="4" fill="#b45309"/>
<circle class="dot" cx="580.0" cy="327.4" r="4" fill="#b45309"/>
<circle class="dot" cx="820.0" cy="189.6" r="4" fill="#b45309"/>
<rect x="870" y="190" width="14" height="14" rx="2" fill="#b45309"/>
<text class="label" x="894" y="202">Disruptor manual fused</text>
<text class="small" x="894" y="220">p50 231 ns / p99 393 ns / p99.9 9.53 us</text>
<polyline class="line" points="100.0,298.0 340.0,292.8 580.0,271.4 820.0,155.1" stroke="#0891b2"/>
<circle class="dot" cx="100.0" cy="298.0" r="4" fill="#0891b2"/>
<circle class="dot" cx="340.0" cy="292.8" r="4" fill="#0891b2"/>
<circle class="dot" cx="580.0" cy="271.4" r="4" fill="#0891b2"/>
<circle class="dot" cx="820.0" cy="155.1" r="4" fill="#0891b2"/>
<rect x="870" y="262" width="14" height="14" rx="2" fill="#0891b2"/>
<text class="label" x="894" y="274">Lattice physical strict topology</text>
<text class="small" x="894" y="292">p50 775 ns / p99 1.43 us / p99.9 21.15 us</text>
<polyline class="line" points="100.0,307.9 340.0,300.7 580.0,231.3 820.0,139.7" stroke="#475569"/>
<circle class="dot" cx="100.0" cy="307.9" r="4" fill="#475569"/>
<circle class="dot" cx="340.0" cy="300.7" r="4" fill="#475569"/>
<circle class="dot" cx="580.0" cy="231.3" r="4" fill="#475569"/>
<circle class="dot" cx="820.0" cy="139.7" r="4" fill="#475569"/>
<rect x="870" y="334" width="14" height="14" rx="2" fill="#475569"/>
<text class="label" x="894" y="346">Disruptor physical</text>
<text class="small" x="894" y="364">p50 617 ns / p99 3.63 us / p99.9 30.24 us</text>
<polyline class="line" points="100.0,298.1 340.0,293.1 580.0,266.2 820.0,148.8" stroke="#06b6d4"/>
<circle class="dot" cx="100.0" cy="298.1" r="4" fill="#06b6d4"/>
<circle class="dot" cx="340.0" cy="293.1" r="4" fill="#06b6d4"/>
<circle class="dot" cx="580.0" cy="266.2" r="4" fill="#06b6d4"/>
<circle class="dot" cx="820.0" cy="148.8" r="4" fill="#06b6d4"/>
<rect x="870" y="406" width="14" height="14" rx="2" fill="#06b6d4"/>
<text class="label" x="894" y="418">Lattice physical pinned CPU</text>
<text class="small" x="894" y="436">p50 774 ns / p99 1.62 us / p99.9 24.47 us</text>
<text class="axis" x="820" y="576" text-anchor="end">ns/op, logarithmic scale</text>
</svg>
