<svg xmlns="http://www.w3.org/2000/svg" width="1120" height="430" viewBox="0 0 1120 430">
<style>text{font-family:Inter,Segoe UI,Arial,sans-serif;fill:#102033}.title{font-size:24px;font-weight:700}.sub{font-size:13px;fill:#52616f}.axis{font-size:12px;fill:#52616f}.label{font-size:13px}.value{font-size:12px;font-weight:600}.grid{stroke:#d8dee8;stroke-width:1}.axisline{stroke:#475569;stroke-width:1.2}.err{stroke:#243447;stroke-width:1.5}</style>
<rect width="1120" height="430" fill="white"/>
<text class="title" x="22" y="32">Core edge and ingress throughput</text>
<text class="sub" x="22" y="54">JMH 1.36, JDK 21, 1 fork, 3x5s warmup, 5x5s measurement, hot metrics disabled</text>
<line class="grid" x1="260.0" y1="86" x2="260.0" y2="370"/>
<text class="axis" x="260.0" y="394" text-anchor="middle">0.0M</text>
<line class="grid" x1="420.0" y1="86" x2="420.0" y2="370"/>
<text class="axis" x="420.0" y="394" text-anchor="middle">25.0M</text>
<line class="grid" x1="580.0" y1="86" x2="580.0" y2="370"/>
<text class="axis" x="580.0" y="394" text-anchor="middle">50.1M</text>
<line class="grid" x1="740.0" y1="86" x2="740.0" y2="370"/>
<text class="axis" x="740.0" y="394" text-anchor="middle">75.1M</text>
<line class="grid" x1="900.0" y1="86" x2="900.0" y2="370"/>
<text class="axis" x="900.0" y="394" text-anchor="middle">100.2M</text>
<line class="grid" x1="1060.0" y1="86" x2="1060.0" y2="370"/>
<text class="axis" x="1060.0" y="394" text-anchor="middle">125.2M</text>
<line class="axisline" x1="260" y1="370" x2="1060" y2="370"/>
<text class="label" x="246" y="142.1" text-anchor="end">SPSC same-thread sanity</text>
<rect x="260" y="119.0" width="266.1" height="34.0" rx="3" fill="#0f766e"/>
<line class="err" x1="260.0" y1="136.0" x2="883.2" y2="136.0"/>
<line class="err" x1="260.0" y1="126.5" x2="260.0" y2="145.5"/>
<line class="err" x1="883.2" y1="126.5" x2="883.2" y2="145.5"/>
<text class="value" x="534.1" y="142.1" text-anchor="start">41.7M</text>
<text class="label" x="246" y="188.1" text-anchor="end">SPSC edge pair total</text>
<rect x="260" y="165.0" width="645.9" height="34.0" rx="3" fill="#0e7490"/>
<line class="err" x1="811.1" y1="182.0" x2="1000.7" y2="182.0"/>
<line class="err" x1="811.1" y1="172.5" x2="811.1" y2="191.5"/>
<line class="err" x1="1000.7" y1="172.5" x2="1000.7" y2="191.5"/>
<text class="value" x="913.9" y="188.1" text-anchor="start">101.1M</text>
<text class="label" x="246" y="234.1" text-anchor="end">MPSC same-thread sanity</text>
<rect x="260" y="211.0" width="160.1" height="34.0" rx="3" fill="#14b8a6"/>
<line class="err" x1="309.9" y1="228.0" x2="530.3" y2="228.0"/>
<line class="err" x1="309.9" y1="218.5" x2="309.9" y2="237.5"/>
<line class="err" x1="530.3" y1="218.5" x2="530.3" y2="237.5"/>
<text class="value" x="428.1" y="234.1" text-anchor="start">25.1M</text>
<text class="label" x="246" y="280.1" text-anchor="end">MPSC edge pair total</text>
<rect x="260" y="257.0" width="473.6" height="34.0" rx="3" fill="#0284c7"/>
<line class="err" x1="661.9" y1="274.0" x2="805.2" y2="274.0"/>
<line class="err" x1="661.9" y1="264.5" x2="661.9" y2="283.5"/>
<line class="err" x1="805.2" y1="264.5" x2="805.2" y2="283.5"/>
<text class="value" x="741.6" y="280.1" text-anchor="start">74.1M</text>
<text class="label" x="246" y="326.1" text-anchor="end">MPSC ingress, 4 producers</text>
<rect x="260" y="303.0" width="91.3" height="34.0" rx="3" fill="#6366f1"/>
<line class="err" x1="326.7" y1="320.0" x2="375.9" y2="320.0"/>
<line class="err" x1="326.7" y1="310.5" x2="326.7" y2="329.5"/>
<line class="err" x1="375.9" y1="310.5" x2="375.9" y2="329.5"/>
<text class="value" x="359.3" y="326.1" text-anchor="start">14.3M</text>
<text class="axis" x="1060" y="412" text-anchor="end">score +/- JMH error, ops/s</text>
</svg>
