<?xml version="1.0" encoding="UTF-8"?>
<svg xmlns="http://www.w3.org/2000/svg" viewBox="0 0 880 320" role="img"
     aria-label="Lattice edge-pair warmed throughput, SPSC vs MPSC">
  <style>
    .title { font: 700 18px Inter, system-ui, sans-serif; fill: #0f172a; }
    .sub   { font: 400 12px Inter, system-ui, sans-serif; fill: #475569; }
    .axis  { stroke: #cbd5e1; }
    .grid  { stroke: #e2e8f0; }
    .label { font: 500 12px Inter, system-ui, sans-serif; fill: #334155; }
    .num   { font: 600 11px Inter, system-ui, sans-serif; fill: #0f172a; }
    .e2e   { fill: #2563eb; }
    .off   { fill: #38bdf8; }
    .pol   { fill: #0ea5e9; }
    .scen  { font: 600 12px Inter, system-ui, sans-serif; fill: #0f172a; }
    .legend{ font: 500 12px Inter, system-ui, sans-serif; fill: #334155; }
  </style>
  <text class="title" x="20" y="28">Lattice bounded edges — warmed steady-state throughput</text>
  <text class="sub"   x="20" y="48">JDK 21 · i7-7700 · WSL2 · 3×10s warmup + 5×10s measurement · EdgePairBenchmark</text>

  <g transform="translate(560,32)">
    <rect class="e2e" x="0"   y="0" width="14" height="14" rx="2"/>
    <text class="legend" x="20"  y="11">end-to-end</text>
    <rect class="off" x="100" y="0" width="14" height="14" rx="2"/>
    <text class="legend" x="120" y="11">offer</text>
    <rect class="pol" x="170" y="0" width="14" height="14" rx="2"/>
    <text class="legend" x="190" y="11">poll</text>
  </g>

  <g transform="translate(0,80)">
    <line class="axis" x1="120" y1="200" x2="840" y2="200"/>
    <!-- 0..40M, 720px wide → 1M = 18px -->
    <g>
      <line class="grid" x1="120" y1="20" x2="120" y2="200"/>
      <line class="grid" x1="300" y1="20" x2="300" y2="200"/>
      <line class="grid" x1="480" y1="20" x2="480" y2="200"/>
      <line class="grid" x1="660" y1="20" x2="660" y2="200"/>
      <line class="grid" x1="840" y1="20" x2="840" y2="200"/>
    </g>
    <g class="label" text-anchor="middle">
      <text x="120" y="218">0</text>
      <text x="300" y="218">10M</text>
      <text x="480" y="218">20M</text>
      <text x="660" y="218">30M</text>
      <text x="840" y="218">40M</text>
    </g>
    <text class="sub" x="480" y="238" text-anchor="middle">ops/s</text>

    <!-- SPSC pair -->
    <text class="scen" x="20" y="40">SPSC edge pair</text>
    <rect class="e2e" x="120" y="48"  width="618.7" height="14"/>
    <text class="num" x="744" y="60">34.37M e2e</text>
    <rect class="off" x="120" y="64"  width="217.0" height="14"/>
    <text class="num" x="343" y="76">12.06M offer</text>
    <rect class="pol" x="120" y="80"  width="401.7" height="14"/>
    <text class="num" x="528" y="92">22.31M poll</text>

    <!-- MPSC pair -->
    <text class="scen" x="20" y="118">MPSC edge pair</text>
    <rect class="e2e" x="120" y="126" width="687.1" height="14"/>
    <text class="num" x="813" y="138">38.17M e2e</text>
    <rect class="off" x="120" y="142" width="215.2" height="14"/>
    <text class="num" x="341" y="154">11.96M offer</text>
    <rect class="pol" x="120" y="158" width="471.8" height="14"/>
    <text class="num" x="598" y="170">26.21M poll</text>
  </g>

  <text class="sub" x="20" y="300">Source: benchmarks/baseline/edge-pair.json · single producer + single consumer · 1024-slot ring</text>
</svg>

