<svg xmlns="http://www.w3.org/2000/svg" width="1180" height="600" viewBox="0 0 1180 600">
<style>text{font-family:Inter,Segoe UI,Arial,sans-serif;fill:#102033}.title{font-size:24px;font-weight:700}.sub{font-size:13px;fill:#52616f}.axis{font-size:12px;fill:#52616f}.label{font-size:12px;fill:#52616f}.series{font-size:11px;fill:#52616f}.value{font-size:12px;font-weight:700}.small{font-size:11px;fill:#52616f}.grid{stroke:#d8dee8;stroke-width:1}.axisline{stroke:#475569;stroke-width:1.2}.err{stroke:#243447;stroke-width:1.5}.line{fill:none;stroke-width:2.6}.dot{stroke:white;stroke-width:1.4}</style>
<rect width="1180" height="600" fill="white"/>
<text class="title" x="24" y="34">Lattice vs Disruptor headline throughput</text>
<text class="sub" x="24" y="58">Scoped JMH runs on 2026-05-02; publish rows use throughput, optimal path waits for completion</text>
<line class="grid" x1="380.0" y1="82" x2="380.0" y2="520"/>
<text class="axis" x="380.0" y="548" text-anchor="middle">0M</text>
<line class="grid" x1="522.0" y1="82" x2="522.0" y2="520"/>
<text class="axis" x="522.0" y="548" text-anchor="middle">50M</text>
<line class="grid" x1="664.0" y1="82" x2="664.0" y2="520"/>
<text class="axis" x="664.0" y="548" text-anchor="middle">100M</text>
<line class="grid" x1="806.0" y1="82" x2="806.0" y2="520"/>
<text class="axis" x="806.0" y="548" text-anchor="middle">150M</text>
<line class="grid" x1="948.0" y1="82" x2="948.0" y2="520"/>
<text class="axis" x="948.0" y="548" text-anchor="middle">200M</text>
<line class="grid" x1="1090.0" y1="82" x2="1090.0" y2="520"/>
<text class="axis" x="1090.0" y="548" text-anchor="middle">250M</text>
<line class="axisline" x1="380" y1="520" x2="1090" y2="520"/>
<text class="label" x="24" y="96">3-stage physical publish</text>
<text class="series" x="350" y="125" text-anchor="end">Lattice</text>
<rect x="380" y="108" width="90.7" height="24" rx="3" fill="#0f766e"/>
<line class="err" x1="466.0" y1="120.0" x2="475.4" y2="120.0"/>
<line class="err" x1="466.0" y1="113.0" x2="466.0" y2="127.0"/>
<line class="err" x1="475.4" y1="113.0" x2="475.4" y2="127.0"/>
<text class="value" x="479.7" y="125">31.9M</text>
<text class="series" x="350" y="157" text-anchor="end">Disruptor</text>
<rect x="380" y="140" width="61.6" height="24" rx="3" fill="#b45309"/>
<line class="err" x1="440.2" y1="152.0" x2="443.0" y2="152.0"/>
<line class="err" x1="440.2" y1="145.0" x2="440.2" y2="159.0"/>
<line class="err" x1="443.0" y1="145.0" x2="443.0" y2="159.0"/>
<text class="value" x="450.6" y="157">21.7M</text>
<text class="label" x="24" y="208">3-stage fused publish</text>
<text class="series" x="350" y="237" text-anchor="end">Lattice</text>
<rect x="380" y="220" width="363.2" height="24" rx="3" fill="#0f766e"/>
<line class="err" x1="736.8" y1="232.0" x2="749.5" y2="232.0"/>
<line class="err" x1="736.8" y1="225.0" x2="736.8" y2="239.0"/>
<line class="err" x1="749.5" y1="225.0" x2="749.5" y2="239.0"/>
<text class="value" x="752.2" y="237">127.9M</text>
<text class="series" x="350" y="269" text-anchor="end">Disruptor</text>
<rect x="380" y="252" width="101.4" height="24" rx="3" fill="#b45309"/>
<line class="err" x1="477.0" y1="264.0" x2="485.8" y2="264.0"/>
<line class="err" x1="477.0" y1="257.0" x2="477.0" y2="271.0"/>
<line class="err" x1="485.8" y1="257.0" x2="485.8" y2="271.0"/>
<text class="value" x="490.4" y="269">35.7M</text>
<text class="label" x="24" y="320">Equal-call-site reference</text>
<text class="series" x="350" y="349" text-anchor="end">Lattice</text>
<rect x="380" y="332" width="594.0" height="24" rx="3" fill="#0f766e"/>
<line class="err" x1="965.4" y1="344.0" x2="982.6" y2="344.0"/>
<line class="err" x1="965.4" y1="337.0" x2="965.4" y2="351.0"/>
<line class="err" x1="982.6" y1="337.0" x2="982.6" y2="351.0"/>
<text class="value" x="983.0" y="349">209.2M</text>
<text class="series" x="350" y="381" text-anchor="end">Disruptor</text>
<rect x="380" y="364" width="88.3" height="24" rx="3" fill="#b45309"/>
<line class="err" x1="465.2" y1="376.0" x2="471.4" y2="376.0"/>
<line class="err" x1="465.2" y1="369.0" x2="465.2" y2="383.0"/>
<line class="err" x1="471.4" y1="369.0" x2="471.4" y2="383.0"/>
<text class="value" x="477.3" y="381">31.1M</text>
<text class="label" x="24" y="432">Optimal completed path</text>
<text class="series" x="350" y="461" text-anchor="end">Lattice</text>
<rect x="380" y="444" width="221.1" height="24" rx="3" fill="#0f766e"/>
<line class="err" x1="599.4" y1="456.0" x2="602.8" y2="456.0"/>
<line class="err" x1="599.4" y1="449.0" x2="599.4" y2="463.0"/>
<line class="err" x1="602.8" y1="449.0" x2="602.8" y2="463.0"/>
<text class="value" x="610.1" y="461">77.9M</text>
<text class="series" x="350" y="493" text-anchor="end">Disruptor</text>
<rect x="380" y="476" width="10.3" height="24" rx="3" fill="#b45309"/>
<line class="err" x1="390.1" y1="488.0" x2="390.5" y2="488.0"/>
<line class="err" x1="390.1" y1="481.0" x2="390.1" y2="495.0"/>
<line class="err" x1="390.5" y1="481.0" x2="390.5" y2="495.0"/>
<text class="value" x="399.3" y="493">3.6M</text>
<text class="axis" x="1090" y="578" text-anchor="end">ops/s, score +/- JMH error</text>
</svg>
