<svg xmlns="http://www.w3.org/2000/svg" width="1120" height="560" viewBox="0 0 1120 560">
<style>text{font-family:Inter,Segoe UI,Arial,sans-serif;fill:#102033}.title{font-size:24px;font-weight:700}.sub{font-size:13px;fill:#52616f}.axis{font-size:12px;fill:#52616f}.label{font-size:13px}.value{font-size:12px;font-weight:600}.grid{stroke:#d8dee8;stroke-width:1}.axisline{stroke:#475569;stroke-width:1.2}.err{stroke:#243447;stroke-width:1.5}</style>
<rect width="1120" height="560" fill="white"/>
<text class="title" x="22" y="32">Top checked-in three-stage publish throughput</text>
<text class="sub" x="22" y="54">Best checked-in Lattice point estimate per shape; Disruptor row from the same artifact</text>
<line class="grid" x1="260.0" y1="86" x2="260.0" y2="500"/>
<text class="axis" x="260.0" y="524" text-anchor="middle">0.0M</text>
<line class="grid" x1="420.0" y1="86" x2="420.0" y2="500"/>
<text class="axis" x="420.0" y="524" text-anchor="middle">23.7M</text>
<line class="grid" x1="580.0" y1="86" x2="580.0" y2="500"/>
<text class="axis" x="580.0" y="524" text-anchor="middle">47.4M</text>
<line class="grid" x1="740.0" y1="86" x2="740.0" y2="500"/>
<text class="axis" x="740.0" y="524" text-anchor="middle">71.1M</text>
<line class="grid" x1="900.0" y1="86" x2="900.0" y2="500"/>
<text class="axis" x="900.0" y="524" text-anchor="middle">94.8M</text>
<line class="grid" x1="1060.0" y1="86" x2="1060.0" y2="500"/>
<text class="axis" x="1060.0" y="524" text-anchor="middle">118.5M</text>
<line class="axisline" x1="260" y1="500" x2="1060" y2="500"/>
<text class="label" x="246" y="158.1" text-anchor="end">Lattice physical, 3 stages</text>
<rect x="260" y="135.0" width="186.8" height="34.0" rx="3" fill="#14b8a6"/>
<line class="err" x1="393.8" y1="152.0" x2="499.7" y2="152.0"/>
<line class="err" x1="393.8" y1="142.5" x2="393.8" y2="161.5"/>
<line class="err" x1="499.7" y1="142.5" x2="499.7" y2="161.5"/>
<text class="value" x="454.8" y="158.1" text-anchor="start">27.7M</text>
<text class="label" x="246" y="205.1" text-anchor="end">Disruptor physical, 3 handlers</text>
<rect x="260" y="182.0" width="178.1" height="34.0" rx="3" fill="#f59e0b"/>
<line class="err" x1="421.6" y1="199.0" x2="454.6" y2="199.0"/>
<line class="err" x1="421.6" y1="189.5" x2="421.6" y2="208.5"/>
<line class="err" x1="454.6" y1="189.5" x2="454.6" y2="208.5"/>
<text class="value" x="446.1" y="205.1" text-anchor="start">26.4M</text>
<text class="label" x="246" y="252.1" text-anchor="end">Lattice inline fused, 3 stages</text>
<rect x="260" y="229.0" width="417.6" height="34.0" rx="3" fill="#0f766e"/>
<line class="err" x1="652.4" y1="246.0" x2="702.8" y2="246.0"/>
<line class="err" x1="652.4" y1="236.5" x2="652.4" y2="255.5"/>
<line class="err" x1="702.8" y1="236.5" x2="702.8" y2="255.5"/>
<text class="value" x="685.6" y="252.1" text-anchor="start">61.8M</text>
<text class="label" x="246" y="299.1" text-anchor="end">Disruptor manual fused, copy</text>
<rect x="260" y="276.0" width="237.7" height="34.0" rx="3" fill="#b45309"/>
<line class="err" x1="360.9" y1="293.0" x2="634.5" y2="293.0"/>
<line class="err" x1="360.9" y1="283.5" x2="360.9" y2="302.5"/>
<line class="err" x1="634.5" y1="283.5" x2="634.5" y2="302.5"/>
<text class="value" x="505.7" y="299.1" text-anchor="start">35.2M</text>
<text class="label" x="246" y="346.1" text-anchor="end">Lattice inline fused, reference</text>
<rect x="260" y="323.0" width="355.9" height="34.0" rx="3" fill="#0f766e"/>
<line class="err" x1="480.5" y1="340.0" x2="751.2" y2="340.0"/>
<line class="err" x1="480.5" y1="330.5" x2="480.5" y2="349.5"/>
<line class="err" x1="751.2" y1="330.5" x2="751.2" y2="349.5"/>
<text class="value" x="623.9" y="346.1" text-anchor="start">52.7M</text>
<text class="label" x="246" y="393.1" text-anchor="end">Disruptor manual fused, ref isolated</text>
<rect x="260" y="370.0" width="261.4" height="34.0" rx="3" fill="#b45309"/>
<line class="err" x1="400.4" y1="387.0" x2="642.4" y2="387.0"/>
<line class="err" x1="400.4" y1="377.5" x2="400.4" y2="396.5"/>
<line class="err" x1="642.4" y1="377.5" x2="642.4" y2="396.5"/>
<text class="value" x="529.4" y="393.1" text-anchor="start">38.7M</text>
<text class="label" x="246" y="440.1" text-anchor="end">Lattice manual fused, reference</text>
<rect x="260" y="417.0" width="621.7" height="34.0" rx="3" fill="#0e7490"/>
<line class="err" x1="800.8" y1="434.0" x2="962.7" y2="434.0"/>
<line class="err" x1="800.8" y1="424.5" x2="800.8" y2="443.5"/>
<line class="err" x1="962.7" y1="424.5" x2="962.7" y2="443.5"/>
<text class="value" x="889.7" y="440.1" text-anchor="start">92.1M</text>
<text class="label" x="246" y="487.1" text-anchor="end">Disruptor manual fused, ref matrix</text>
<rect x="260" y="464.0" width="297.4" height="34.0" rx="3" fill="#b45309"/>
<line class="err" x1="526.2" y1="481.0" x2="588.5" y2="481.0"/>
<line class="err" x1="526.2" y1="471.5" x2="526.2" y2="490.5"/>
<line class="err" x1="588.5" y1="471.5" x2="588.5" y2="490.5"/>
<text class="value" x="565.4" y="487.1" text-anchor="start">44.0M</text>
<text class="axis" x="1060" y="542" text-anchor="end">score +/- JMH error, ops/s</text>
</svg>
